<?xml version="1.0" encoding="utf-8"?>
<!-- Generator: Adobe Illustrator 15.0.0, SVG Export Plug-In . SVG Version: 6.00 Build 0)  -->
<!DOCTYPE svg PUBLIC "-//W3C//DTD SVG 1.1//EN" "http://www.w3.org/Graphics/SVG/1.1/DTD/svg11.dtd">
<svg version="1.1" id="Layer_1" xmlns="http://www.w3.org/2000/svg" xmlns:xlink="http://www.w3.org/1999/xlink" x="0px" y="0px"
	 width="408.6px" height="93.047px" viewBox="0 0 408.6 93.047" enable-background="new 0 0 408.6 93.047" xml:space="preserve">
<rect x="0.3" y="-0.123" display="none" fill="#7F7F7F" width="153" height="93"/>
<rect x="238.3" y="-0.123" display="none" fill="#7F7F7F" width="171" height="93"/>
<g>
	<path fill="#FFFFFF" d="M58.93,75.212c-2.326,5.687-5.602,10.08-9.822,13.182c-4.222,3.102-10.555,4.652-18.997,4.652
		c-10.597,0-18.266-3.251-23.003-9.757C2.368,76.786,0,66.641,0,52.856V40.191C0,26.408,2.368,16.263,7.107,9.757
		C11.845,3.253,19.514,0,30.11,0c8.442,0,14.775,1.551,18.997,4.652c4.221,3.102,7.496,7.495,9.822,13.182l-3.489,1.68
		c-1.983-4.996-4.782-8.852-8.4-11.566s-9.263-4.071-16.93-4.071c-4.222,0-7.841,0.539-10.855,1.615
		c-3.017,1.078-5.73,2.908-8.142,5.492C8.7,13.569,6.892,17.297,5.686,22.163c-1.207,4.869-1.809,10.878-1.809,18.028v12.665
		c0,7.152,0.602,13.161,1.809,18.027c1.206,4.868,3.015,8.594,5.428,11.179c2.411,2.585,5.125,4.417,8.142,5.493
		c3.015,1.078,6.634,1.615,10.855,1.615c7.667,0,13.312-1.356,16.93-4.071c3.618-2.714,6.417-6.568,8.4-11.566L58.93,75.212z"/>
	<path fill="#FFFFFF" d="M81.026,87.878h47.558l-27.397-75.343l-28.818,79.22h-4.136l32.954-90.592l32.954,90.592H81.026V87.878z"/>
	<path fill="#FFFFFF" d="M242.538,91.755h-3.877V46.523h-85.524v45.231h-3.877V1.292h3.877v41.354h85.524V1.292h3.877V91.755z"/>
	<path fill="#FFFFFF" d="M277.688,1.292h49.495v51.564c0,13.785-2.37,23.93-7.107,30.434c-4.739,6.506-12.406,9.757-23.003,9.757
		c-10.598,0-18.267-3.251-23.004-9.757c-4.739-6.504-7.107-16.648-7.107-30.434V1.292h3.877v51.564
		c0,7.152,0.602,13.161,1.81,18.027c1.205,4.868,3.015,8.594,5.428,11.179c2.411,2.585,5.124,4.417,8.142,5.493
		c3.015,1.078,6.633,1.615,10.855,1.615c4.22,0,7.838-0.537,10.855-1.615c3.015-1.076,5.729-2.908,8.142-5.493
		c2.41-2.585,4.22-6.311,5.428-11.179c1.205-4.866,1.809-10.875,1.809-18.027V5.169h-45.618V1.292z"/>
	<path fill="#FFFFFF" d="M398.003,44.456h-38.382l39.545-39.287h-43.681v82.709h50.142v3.877h-54.019V1.292H408.6l-39.545,39.287
		h28.948V44.456z"/>
	<path fill="#02F0B1" d="M238.661,46.523h-85.524v-3.877h85.524V46.523z"/>
</g>
</svg>
