<?xml version="1.0" encoding="utf-8"?>
<!-- Generator: Adobe Illustrator 19.0.0, SVG Export Plug-In . SVG Version: 6.00 Build 0)  -->
<svg version="1.1" id="Capa_1" xmlns="http://www.w3.org/2000/svg" xmlns:xlink="http://www.w3.org/1999/xlink" x="0px" y="0px"
	 width="663.7px" height="663.7px" viewBox="236 -235.7 663.7 663.7" style="enable-background:new 236 -235.7 663.7 663.7;"
	 xml:space="preserve">
<style type="text/css">
	.st0{fill:#FFFFFF;}
	.st1{fill:#FF0000;}
</style>
<rect x="236" y="-235.7" class="st0" width="663.7" height="663.7"/>
<path class="st1" d="M796.1-1.6c-0.6-0.8-1.3-1.4-2-2.1c-2.6-2.1-6.1-3.4-10.2-4.2c-9.4-1.9-18.5-3.3-25.8-1.4l0,0
	C749.4-7,743,0,741.4,16.3c-23.9-16-30.8-38.9-38.1-61.9c-4.2-13.2-8.5-23.8-13.6-32.1c-5.2-8.5-11.3-14.7-19-19
	c-11.5-6.5-26.7-8.8-48.2-8.6c-16.8,0.1-84.3,0.1-101.1,0c-49.8-0.3-65.8,12.5-80.7,59.7c-7.3,23-14.2,45.9-38.1,61.9
	c-3-30.1-22.1-28.4-42.6-24.2c-9.4,1.9-15.7,6.3-14.8,16.7c2.1,23.8,23.3,16.1,41,23.7c-21.3,20.3-30.6,42.7-30.6,66
	c0,27.6,1,58.3,1,86.3c0,7.9,4.1,15.4,10.4,18.9c13.9,7.7,18.6,18.3,17.6,33.9c-0.3,5.3,0.6,9.3,2.3,12.3c1.2,1.9,2.7,3.4,4.6,4.6
	l0,0c4.9,3,12,3.5,19.4,3c14.1-0.9,33.9,4.5,33.7-18c0-2.8,0.1-5.3,0.5-7.5c2.2-14.8,12.4-15.6,27.2-15.4
	c33.2,0.3,66.4,0.4,99.7,0.4c33.2,0,66.5-0.1,99.7-0.4c16.9-0.2,27.9,0.8,27.6,22.9c-0.2,22.5,19.5,17.1,33.7,18
	c14.5,0.9,27.5-1.7,26.3-19.8c-0.9-15.6,3.8-26.2,17.7-33.9c6.3-3.5,10.4-11,10.4-18.9c0-27.6,1-57.8,1-86.3c0-1.3,0-2.6-0.1-3.8
	c-1-21.9-10.4-43-30.5-62.2c11.8-5.1,25.2-3.3,33.4-8.7c4.1-2.7,6.9-7.1,7.6-15C799,4.4,798.1,1,796.1-1.6L796.1-1.6z M459.9-27
	c18.3-52.8,22.8-56.4,80.1-56c10.6,0.1,21.3-0.1,31.9-0.3c10.6,0.2,21.3,0.4,31.9,0.3c57.3-0.4,61.8,3.2,80.1,56
	c3.9,11.2,8.6,22.2,14.6,37.7c-44.5,0-85.2,0-126,0c-0.2,0-0.4,0-0.6,0c-0.2,0-0.4,0-0.6,0c-40.8,0-81.5,0-126,0
	C451.3-4.8,456-15.8,459.9-27z M637.9,106v6.8H505.8V106H637.9z M526.7,98.6v-5.3H617v5.3H526.7z M440,150.4
	c-18.3,0-33.1-14.8-33.1-33.1c0-18.3,14.8-33.1,33.1-33.1s33.1,14.8,33.1,33.1C473.2,135.5,458.4,150.4,440,150.4z M622,139.2H521.8
	v-6.5H622V139.2z M642.6,126.1H500.9v-5.7h141.7V126.1L642.6,126.1z M702.8,149.4c-18.3,0-33.1-14.8-33.1-33.1
	c0-18.3,14.8-33.1,33.1-33.1s33.1,14.8,33.1,33.1C735.9,134.6,721.1,149.4,702.8,149.4z"/>
</svg>
