<?xml version="1.0" encoding="utf-8"?>
<!-- Generator: Adobe Illustrator 19.0.0, SVG Export Plug-In . SVG Version: 6.00 Build 0)  -->
<svg version="1.0" xmlns="http://www.w3.org/2000/svg" xmlns:xlink="http://www.w3.org/1999/xlink" x="0px" y="0px" width="192px"
	 height="192px" viewBox="0 0 192 192" style="enable-background:new 0 0 192 192;" xml:space="preserve">
<style type="text/css">
	.st0{display:none;}
	.st1{display:inline;fill:#12A0D0;}
	.st2{fill:#FFFFFF;}
	.st3{fill:#02F0B1;}
	.st4{fill:#114454;}
	.st5{fill:#0D333F;}
	.st6{fill:none;}
</style>
<g id="Layer_2" class="st0">
	<rect class="st1" width="192" height="192"/>
</g>
<g id="Layer_3">
	<rect class="st2" width="192" height="192"/>
</g>
<g id="Logo">
	<path class="st3" d="M146.7,102.5c0-41.3-33.3-74.7-74.4-74.7S-2,61.2-2,102.5c0,0.9,0,1.7,0.1,2.7c0.2,7.8,1.7,15.4,4.2,22.4
		c1.1,3.7,2.5,7.6,4,11.4c-4,3.6-49.6,36.2-47.9,40.2c0.7,1.6,9.4-0.4,19.9-4.2c3.6-1.4,1.2,5.8,5.2,4.5
		c14.8-8.7,14.8-10.8,34.1-15.4c22,43,54.7,84.3,54.7,84.3s47-58.1,65.8-108.5c0.7-2.1,28.7-18.6,38.8-34.6
		c7.2-11.3,3.7-33.3-18.4-53c-11.2-9.8-21.9-12.2-11.9,1.5c13.9,19-2,3.9-0.4,10.3c2.6,9.9,15.4,13.7,15.4,13.7s7,6.3,4,13.9
		C161.9,101.7,146.7,103.4,146.7,102.5z"/>
	<path class="st3" d="M146.7,102.5c0-41.3-33.3-74.7-74.4-74.7S-2,61.2-2,102.5c0,0.9,0,1.7,0.1,2.7c0.2,7.8,1.7,15.4,4.2,22.4
		c1.1,3.7,2.5,7.6,4,11.4c1.5,3.9,10.2,22.8,11.3,25c22,43,54.7,84.3,54.7,84.3s47-57.9,65.8-108.5
		C143.6,124.9,144.9,121,146.7,102.5z"/>
	<path class="st4" d="M55.6,54.7c1.2,3.1-3.6,2.9-8.6,4.8c-5,1.9-8.5,5.3-9.6,2.1c-1.2-3.1,1.9-7.3,7-9.2
		C49.3,50.4,54.4,51.5,55.6,54.7z"/>
	<path class="st4" d="M102.7,50.2c-0.4,2.9-3.9,0.7-8.5,0.2c-4.6-0.5-8.5,0.7-8.2-2.1c0.4-2.9,4.4-4.8,9-4.2
		C99.6,44.5,103,47.2,102.7,50.2z"/>
	<path class="st4" d="M88.4,114c23.5-4.4,39.5-22.6,36.7-39.5s-88.3-1.5-85,15.9C43.2,107.7,64.9,118.3,88.4,114z"/>
	<path class="st5" d="M86,72.6c41.4-5.8,39.7,18.5,38.9,1.9c-2.9-16.9-88.3-1.5-85,15.9C43.9,104.3,38.8,78.6,86,72.6z"/>
	<path class="st2" d="M71.6,104.8c-0.7-4.1,4.5-8.6,11.8-9.9c7.3-1.4,13.8,0.9,14.5,5C98.8,104,72.3,108.9,71.6,104.8z"/>
	<line class="st6" x1="-94.4" y1="271.5" x2="-95.2" y2="271.5"/>
	<line class="st6" x1="30.7" y1="165.7" x2="119.5" y2="254.8"/>
	<path class="st3" d="M2.5,127.6c1.1,3.7,2.5,7.6,4,11.4c-4,3.6-49.6,36.2-47.9,40.2c0.7,1.6,9.4-0.4,19.9-4.2
		c3.6-1.4,1.2,5.8,5.2,4.5c14.8-8.7,14.8-10.8,34.1-15.4"/>
</g>
</svg>
