<?xml version="1.0" encoding="utf-8"?>
<!-- Generator: Adobe Illustrator 19.0.0, SVG Export Plug-In . SVG Version: 6.00 Build 0)  -->
<svg version="1.2" baseProfile="tiny" id="Layer_1" xmlns="http://www.w3.org/2000/svg" xmlns:xlink="http://www.w3.org/1999/xlink"
	 x="0px" y="0px" viewBox="-293 385 24 24" xml:space="preserve">
<g>
	<path fill="#FFFFFF" d="M-279.4,392.7c-0.1-0.4-0.5-0.7-1-0.7h-7.4c-0.4,0-0.8,0.3-1,0.7l-1.4,4v5.4c0,0.4,0.3,0.7,0.7,0.7h0.7
		c0.4,0,0.7-0.3,0.7-0.7v-0.7h8v0.7c0,0.4,0.3,0.7,0.7,0.7h0.7c0.4,0,0.7-0.3,0.7-0.7v-5.4L-279.4,392.7z M-287.7,399.4
		c-0.6,0-1-0.4-1-1c0-0.6,0.4-1,1-1c0.6,0,1,0.4,1,1C-286.7,398.9-287.1,399.4-287.7,399.4z M-280.3,399.4c-0.6,0-1-0.4-1-1
		c0-0.6,0.4-1,1-1c0.6,0,1,0.4,1,1C-279.3,398.9-279.8,399.4-280.3,399.4z M-288.7,396l1-3h7.4l1,3H-288.7z"/>
</g>
<path fill="none" d="M-293,385h24v24h-24V385z"/>
<g>
	<path fill="#FFFFFF" d="M-275.2,399.4c0-0.7,0.1-1.2,0.2-1.6c0.2-0.4,0.4-0.8,0.9-1.1c0.4-0.4,0.7-0.7,0.8-0.9
		c0.1-0.2,0.2-0.5,0.2-0.7c0-0.8-0.4-1.2-1.1-1.2c-0.3,0-0.6,0.1-0.8,0.3c-0.2,0.2-0.3,0.5-0.3,0.9h-2c0-0.9,0.3-1.6,0.9-2.1
		c0.6-0.5,1.3-0.8,2.3-0.8c1,0,1.8,0.2,2.3,0.7c0.5,0.5,0.8,1.2,0.8,2c0,0.4-0.1,0.8-0.3,1.1c-0.2,0.4-0.5,0.7-0.9,1.2l-0.6,0.5
		c-0.4,0.3-0.6,0.7-0.6,1.2l0,0.4H-275.2z M-275.4,401.5c0-0.3,0.1-0.6,0.3-0.8c0.2-0.2,0.5-0.3,0.8-0.3c0.3,0,0.6,0.1,0.8,0.3
		c0.2,0.2,0.3,0.5,0.3,0.8c0,0.3-0.1,0.6-0.3,0.8c-0.2,0.2-0.5,0.3-0.8,0.3s-0.6-0.1-0.8-0.3C-275.3,402.1-275.4,401.9-275.4,401.5z
		"/>
</g>
</svg>
