<?xml version="1.0" encoding="utf-8"?>
<!-- Generator: Adobe Illustrator 19.0.0, SVG Export Plug-In . SVG Version: 6.00 Build 0)  -->
<svg version="1.1" id="Capa_1" xmlns="http://www.w3.org/2000/svg" xmlns:xlink="http://www.w3.org/1999/xlink" x="0px" y="0px"
	 width="663.7px" height="663.7px" viewBox="0 0 663.7 663.7" style="enable-background:new 0 0 663.7 663.7;" xml:space="preserve"
	>
<style type="text/css">
	.st0{fill:#E8E8E8;}
	.st1{fill:#12a0d0;}
	.st2{fill:#FFFFFF;}
	.st3{fill:#F7F7F7;}
</style>
<path id="XMLID_1_" class="st0" d="M565.3,151.5c-98.9-74.1-226.5-41-286.7,39.3c-81.8,109.2-72.9,286.3-66.6,432.5
	c144.1-33.6,317.5-80.5,396.2-185.6C668.5,357.3,664.2,225.5,565.3,151.5z"/>
<path id="XMLID_7_" class="st1" d="M212.1,33.9C88.5,33.9,6.2,136.8,6.2,237.2c0,136.4,113.2,272.8,205.9,386.1
	C307.3,510,418,368.4,418,237.2C418,136.8,335.6,33.9,212.1,33.9z"/>
<path class="st2" d="M381.6,218.7l-48.7-49.1c-0.3-0.4-0.7-0.8-1.1-1.1c-1.4-1.2-3.4-1.9-5.7-2.3c-5.2-1.1-10.2-1.8-14.3-0.8
	l-37.9-37.9c-2.9-4.7-6.3-8.2-10.5-10.5c-6.4-3.6-14.8-4.9-26.7-4.8c-9.3,0.1-46.7,0.1-56.1,0c-27.6-0.2-36.5,6.9-44.8,33.1
	c-4,12.7-7.9,25.4-21.1,34.3c-1.7-16.7-12.2-15.7-23.6-13.4c-5.2,1.1-8.7,3.5-8.2,9.3c1.2,13.2,12.9,8.9,22.7,13.1
	c-11.8,11.3-17,23.7-17,36.6c0,15.3,0.6,32.3,0.6,47.8c0,4.4,2.3,8.5,5.8,10.5c7.7,4.3,10.3,10.1,9.8,18.8c-0.2,2.9,0.3,5.2,1.3,6.8
	c0.6,1.1,1.5,1.9,2.5,2.5l88,88l0,0.5c-41.3-2.8-78.6-20.2-106.9-46.9c-29.4-31-47.3-72.9-47.3-119C42.3,138.6,119.9,61,215.5,61
	c46.1,0,87.9,18,119,47.3C362,137.4,379.5,176,381.6,218.7z"/>
<path class="st3" d="M381.6,218.7l-48.7-49.1c1.1,1.4,1.7,3.3,1.4,5.8c-0.4,4.4-1.9,6.8-4.2,8.3c-4.5,3-12,2-18.5,4.8
	c11.2,10.6,16.4,22.3,16.9,34.5c0,0.7,0.1,1.4,0.1,2.1c0,15.8-0.6,32.5-0.6,47.8c0,4.4-2.3,8.5-5.8,10.5
	c-7.7,4.3-10.3,10.1-9.8,18.8c0.6,10.1-6.6,11.5-14.6,11c-7.8-0.5-18.8,2.5-18.7-10c0.1-12.3-5.9-12.8-15.3-12.7
	c-18.4,0.2-36.8,0.2-55.3,0.2c-18.4,0-36.8-0.1-55.3-0.2c-8.2-0.1-13.8,0.3-15.1,8.5c-0.2,1.2-0.3,2.6-0.3,4.2
	c0.1,12.5-10.8,9.5-18.7,10c-4.1,0.3-8,0-10.8-1.7l88,88l0,0.5c4,0.3,8,0.4,12,0.4c93.2,0,169.1-73.6,173-165.7
	c0.1-2.5,0.2-4.9,0.2-7.4C381.8,224.4,381.7,221.6,381.6,218.7z"/>
<path class="st3" d="M302.5,179.6c0.9-9,4.4-12.9,9.3-14.2l-37.9-37.9c2.8,4.6,5.2,10.4,7.5,17.8C285.5,158,289.3,170.7,302.5,179.6
	z"/>
<path class="st3" d="M281.2,216.6c10.1,0,18.4,8.2,18.4,18.4c0,10.1-8.2,18.4-18.4,18.4c-10.1,0-18.4-8.2-18.4-18.4
	C262.8,224.8,271.1,216.6,281.2,216.6z"/>
<path class="st3" d="M278.8,176.4c-24.6,0-47.3,0-69.9,0c-0.1,0-0.2,0-0.3,0s-0.2,0-0.3,0c-22.6,0-45.2,0-69.9,0
	c3.3-8.6,5.9-14.7,8.1-20.9c10.2-29.3,12.6-31.3,44.4-31c5.9,0,11.8-0.1,17.7-0.2c5.9,0.1,11.8,0.2,17.7,0.2
	c31.8-0.2,34.2,1.8,44.4,31C272.9,161.8,275.5,167.9,278.8,176.4z"/>
<path class="st3" d="M135.6,217.1c10.1,0,18.4,8.2,18.4,18.4c0,10.1-8.2,18.4-18.4,18.4c-10.1,0-18.4-8.2-18.4-18.4
	C117.2,225.4,125.4,217.1,135.6,217.1z"/>
<rect x="183.6" y="222.2" class="st3" width="50" height="2.9"/>
<rect x="172" y="229.3" class="st3" width="73.2" height="3.8"/>
<rect x="169.3" y="237.3" class="st3" width="78.5" height="3.2"/>
<rect x="180.9" y="244.1" class="st3" width="55.5" height="3.6"/>
</svg>
