<?xml version="1.0" encoding="utf-8"?>
<!-- Generator: Adobe Illustrator 17.1.0, SVG Export Plug-In . SVG Version: 6.00 Build 0)  -->
<!DOCTYPE svg PUBLIC "-//W3C//DTD SVG 1.1//EN" "http://www.w3.org/Graphics/SVG/1.1/DTD/svg11.dtd">
<svg version="1.1" id="Capa_1" xmlns="http://www.w3.org/2000/svg" xmlns:xlink="http://www.w3.org/1999/xlink" x="0px" y="0px"
	 viewBox="0 0 512 512" enable-background="new 0 0 512 512" xml:space="preserve">
<g>
	<path fill="#0D333F" d="M434.5,179.7c0-93.8-76.1-169.9-169.9-169.9S94.7,85.8,94.7,179.7c0,2,0.1,4,0.2,6.1c0.6,17.9,4,35,9.7,51
		c2.6,8.5,5.6,17.2,9,26.1C104.4,271,0,345.2,4.1,354.2c1.6,3.6,21.5-0.9,45.6-9.5c8.4-3,2.9,13.4,11.9,10.1
		c33.8-19.7,33.9-24.6,78-35.1c50.3,97.8,125,191.7,125,191.7s107.5-132,150.4-246.9c1.7-4.9,65.8-42.5,88.8-78.7
		c16.4-25.7,8.6-75.9-42.1-120.4c-25.5-22.4-50-27.6-27.2,3.4c31.9,43.2-4.7,8.8-0.8,23.5c6,22.8,35.3,31.1,35.3,31.1
		s16,14.5,9.2,31.6C469.1,177.8,434.5,181.7,434.5,179.7z"/>
	<path fill="#0D333F" d="M451.5,177.1c-16.7,8-28.8-8.9-25.4,0c3.4,8.9-142.4,189.6,10.2,70.9C452.4,236.1,457,200.3,451.5,177.1z"
		/>
	<path fill="#0D333F" d="M434.5,179.7c0-93.8-76.1-169.9-169.9-169.9S94.7,85.8,94.7,179.7c0,2,0.1,4,0.2,6.1c0.6,17.9,4,35,9.7,51
		c2.6,8.5,5.6,17.2,9,26c3.4,8.9,23.3,51.7,25.8,56.9c50.3,97.8,125.1,191.7,125.1,191.7s107.5-131.9,150.4-246.9
		C427.5,230.7,430.6,221.9,434.5,179.7z"/>
	<path fill="#0D333F" d="M147.7,217c-0.2-21.8-48.9,3.6-43.2,19.7c2.6,8.5,5.6,17.3,9,26.1C133,247.5,147.9,228.8,147.7,217z"/>
	<path fill="#0D333F" d="M139.5,319.7c57.8-14.3,34.8,61.4,34.8,61.4S158.3,356,139.5,319.7z"/>
	<path fill="#0D333F" d="M226.2,70.8c2.8,7.2-8.1,6.6-19.6,11c-11.5,4.4-19.2,12.1-22,4.9c-2.8-7.2,4.3-16.6,15.8-21
		C211.9,61.3,223.4,63.6,226.2,70.8z"/>
	<path fill="#0D333F" d="M333.9,60.5c-0.8,6.6-8.8,1.8-19.3,0.6c-10.5-1.2-19.4,1.6-18.7-4.9c0.8-6.6,9.9-11,20.3-9.7
		C326.7,47.6,334.6,54,333.9,60.5z"/>
	<path fill="#0D333F" d="M301,205.7c53.7-10,90.5-51.4,83.9-89.9c-6.6-38.5-201.9-3.5-194.5,36.2C197.8,191.6,247.3,215.7,301,205.7
		z"/>
	<path fill="#0D333F" d="M295.8,111.4c94.6-13.4,90.7,42.1,89.1,4.4c-6.6-38.5-201.9-3.5-194.5,36.2
		C199.3,183.8,187.6,125.4,295.8,111.4z"/>
	<path fill="#0D333F" d="M262.7,184.8c-1.7-9.4,10.3-19.6,27-22.6c16.7-3.1,31.6,2,33.3,11.4C324.9,183,264.5,194.2,262.7,184.8z"/>
</g>
<g>
	<path fill="#02F0B1" d="M430.8,174.9C430.8,81.1,354.7,5,260.8,5S90.9,81.1,90.9,174.9c0,2,0.1,4,0.2,6.1c0.6,17.9,4,35,9.7,51
		c2.6,8.5,5.6,17.2,9,26.1c-9.2,8.1-113.6,82.3-109.5,91.4c1.6,3.6,21.5-0.9,45.6-9.5c8.4-3,2.9,13.4,11.9,10.1
		c33.8-19.7,33.9-24.6,78-35.1c50.3,97.8,125,191.7,125,191.7s107.5-132,150.4-246.9c1.7-4.9,65.8-42.5,88.8-78.7
		c16.4-25.7,8.6-75.9-42.1-120.4c-25.5-22.4-50-27.6-27.2,3.4c31.9,43.2-4.7,8.8-0.8,23.5c6,22.8,35.3,31.1,35.3,31.1
		s16,14.5,9.2,31.6C465.3,173,430.8,176.9,430.8,174.9z"/>
	
		<linearGradient id="SVGID_1_" gradientUnits="userSpaceOnUse" x1="952.76" y1="34.1936" x2="1116.2037" y2="34.1936" gradientTransform="matrix(0.5333 0 0 -0.5333 -145.321 244.8023)">
		<stop  offset="0" style="stop-color:#06CC93"/>
		<stop  offset="1" style="stop-color:#02F0B1"/>
	</linearGradient>
	<path fill="url(#SVGID_1_)" d="M447.7,172.4c-16.7,8-28.8-8.9-25.4,0c3.4,8.9-142.4,189.6,10.2,70.9
		C448.7,231.4,453.2,195.6,447.7,172.4z"/>
	<path fill="#02F0B1" d="M430.8,174.9C430.8,81.1,354.7,5,260.8,5S90.9,81.1,90.9,174.9c0,2,0.1,4,0.2,6.1c0.6,17.9,4,35,9.7,51
		c2.6,8.5,5.6,17.2,9,26c3.4,8.9,23.3,51.7,25.8,56.9c50.3,97.8,125.1,191.7,125.1,191.7s107.5-131.9,150.4-246.9
		C423.7,225.9,426.8,217.1,430.8,174.9z"/>
	
		<linearGradient id="SVGID_2_" gradientUnits="userSpaceOnUse" x1="521.84" y1="-6.5551" x2="490.8983" y2="66.3382" gradientTransform="matrix(0.5333 0 0 -0.5333 -145.321 244.8023)">
		<stop  offset="0" style="stop-color:#06CC93"/>
		<stop  offset="5.900000e-002" style="stop-color:#05D197"/>
		<stop  offset="0.3412" style="stop-color:#04E2A5"/>
		<stop  offset="0.6438" style="stop-color:#02EDAE"/>
		<stop  offset="1" style="stop-color:#02F0B1"/>
	</linearGradient>
	<path fill="url(#SVGID_2_)" d="M144,212.3c-0.2-21.8-48.9,3.6-43.2,19.7c2.6,8.5,5.6,17.3,9,26.1C129.3,242.7,144.1,224,144,212.3z
		"/>
	
		<linearGradient id="SVGID_3_" gradientUnits="userSpaceOnUse" x1="557.0305" y1="-124.6143" x2="585.586" y2="-248.3019" gradientTransform="matrix(0.5333 0 0 -0.5333 -145.321 244.8023)">
		<stop  offset="0" style="stop-color:#06CC93"/>
		<stop  offset="0.1076" style="stop-color:#04DCA0"/>
		<stop  offset="0.2489" style="stop-color:#03E7AA"/>
		<stop  offset="0.4478" style="stop-color:#02EEAF"/>
		<stop  offset="1" style="stop-color:#02F0B1"/>
	</linearGradient>
	<path fill="url(#SVGID_3_)" d="M135.7,315c57.8-14.3,34.8,61.4,34.8,61.4S154.6,351.2,135.7,315z"/>
	<path fill="#114454" d="M222.4,66.1c2.8,7.2-8.1,6.6-19.6,11c-11.5,4.4-19.2,12.1-22,4.9c-2.8-7.2,4.3-16.6,15.8-21
		C208.1,56.6,219.7,58.9,222.4,66.1z"/>
	<path fill="#114454" d="M330.1,55.8c-0.8,6.6-8.8,1.8-19.3,0.6c-10.5-1.2-19.4,1.6-18.7-4.9c0.8-6.6,9.9-11,20.3-9.7
		C323,42.8,330.9,49.2,330.1,55.8z"/>
	<path fill="#114454" d="M297.3,200.9c53.7-10,90.5-51.4,83.9-89.9c-6.6-38.5-201.9-3.5-194.5,36.2
		C194,186.9,243.5,210.9,297.3,200.9z"/>
	<path fill="#0D333F" d="M292.1,106.7c94.6-13.4,90.7,42.1,89.1,4.4c-6.6-38.5-201.9-3.5-194.5,36.2
		C195.6,179,183.9,120.6,292.1,106.7z"/>
	<path fill="#FFFFFF" d="M259,180.1c-1.7-9.4,10.3-19.6,27-22.6c16.7-3.1,31.6,2,33.3,11.4C321.1,178.3,260.7,189.4,259,180.1z"/>
</g>
</svg>
