<?xml version="1.0" encoding="utf-8"?>
<!-- Generator: Adobe Illustrator 19.0.0, SVG Export Plug-In . SVG Version: 6.00 Build 0)  -->
<svg version="1.1" id="Layer_1" xmlns="http://www.w3.org/2000/svg" xmlns:xlink="http://www.w3.org/1999/xlink" x="0px" y="0px"
	 width="20px" height="28.4px" viewBox="-85 82.6 20 28.4" style="enable-background:new -85 82.6 20 28.4;" xml:space="preserve">
<style type="text/css">
	.st0{fill:#12A0D0;}
	.st1{fill:#FFFFFF;}
</style>
<path id="XMLID_7_" class="st0" d="M-75,82.6c-6,0-9.9,4.9-9.9,9.8c0,6.5,5.4,13.1,9.9,18.6c4.6-5.5,9.9-12.2,9.9-18.6
	C-65.1,87.5-69,82.6-75,82.6z"/>
<path class="st1" d="M-76.8,96.7v5h-2.9V87.5h5.5c1.1,0,2,0.2,2.8,0.6c0.8,0.4,1.4,0.9,1.9,1.7c0.4,0.7,0.7,1.5,0.7,2.5
	c0,1.4-0.5,2.5-1.4,3.3c-1,0.8-2.3,1.2-4,1.2H-76.8z M-76.8,94.4h2.6c0.8,0,1.4-0.2,1.8-0.5c0.4-0.4,0.6-0.9,0.6-1.6
	c0-0.7-0.2-1.3-0.6-1.7s-1-0.7-1.7-0.7h-2.7V94.4z"/>
</svg>
