<?xml version="1.0" encoding="utf-8"?>
<!-- Generator: Adobe Illustrator 17.1.0, SVG Export Plug-In . SVG Version: 6.00 Build 0)  -->
<!DOCTYPE svg PUBLIC "-//W3C//DTD SVG 1.1//EN" "http://www.w3.org/Graphics/SVG/1.1/DTD/svg11.dtd">
<svg version="1.1" id="Capa_1" xmlns="http://www.w3.org/2000/svg" xmlns:xlink="http://www.w3.org/1999/xlink" x="0px" y="0px"
	 viewBox="0 634.8 2811 2777.6" enable-background="new 0 634.8 2811 2777.6" xml:space="preserve">
<g>
	<path fill="#02F0B1" d="M2385.1,1575.4c0-519.3-421.3-940.6-941.2-940.6s-940.6,421.3-940.6,940.6c0,11.1,0.6,22.1,1.1,33.8
		c3.3,99.1,22.1,193.8,53.7,282.4c14.4,47.1,31,95.2,49.8,144.5C557,2080.9-21,2491.7,1.7,2542.1c8.9,19.9,119-5,252.5-52.6
		c46.5-16.6,16.1,74.2,65.9,55.9c187.1-109.1,187.7-136.2,431.8-194.3c278.5,541.5,692.1,1061.3,692.1,1061.3
		s595.2-730.8,832.7-1366.9c9.4-27.1,364.3-235.3,491.6-435.7c90.8-142.3,47.6-420.2-233.1-666.6c-141.2-124-276.8-152.8-150.6,18.8
		c176.6,239.2-26,48.7-4.4,130.1c33.2,126.2,195.4,172.2,195.4,172.2s88.6,80.3,50.9,175C2576.1,1564.9,2385.1,1586.5,2385.1,1575.4
		z"/>
	
		<linearGradient id="SVGID_1_" gradientUnits="userSpaceOnUse" x1="952.6554" y1="3971.6179" x2="1116.1741" y2="3971.6179" gradientTransform="matrix(2.9526 0 0 2.9526 -804.5589 -9864.5723)">
		<stop  offset="0" style="stop-color:#06CC93"/>
		<stop  offset="1" style="stop-color:#02F0B1"/>
	</linearGradient>
	<path fill="url(#SVGID_1_)" d="M2478.7,1561.6c-92.5,44.3-159.4-49.3-140.6,0c18.8,49.3-788.4,1049.7,56.5,392.5
		C2484.2,1888.2,2509.1,1690,2478.7,1561.6z"/>
	<path fill="#02F0B1" d="M2385.1,1575.4c0-519.3-421.3-940.6-941.2-940.6s-940.6,421.3-940.6,940.6c0,11.1,0.6,22.1,1.1,33.8
		c3.3,99.1,22.1,193.8,53.7,282.4c14.4,47.1,31,95.2,49.8,143.9c18.8,49.3,129,286.2,142.8,315
		c278.5,541.5,692.6,1061.3,692.6,1061.3s595.2-730.3,832.7-1366.9C2345.8,1857.8,2362.9,1809.1,2385.1,1575.4z"/>
	
		<linearGradient id="SVGID_2_" gradientUnits="userSpaceOnUse" x1="521.74" y1="4012.1931" x2="490.8251" y2="3939.363" gradientTransform="matrix(2.9526 0 0 2.9526 -804.5589 -9864.5723)">
		<stop  offset="0" style="stop-color:#06CC93"/>
		<stop  offset="5.900000e-002" style="stop-color:#05D197"/>
		<stop  offset="0.3412" style="stop-color:#04E2A5"/>
		<stop  offset="0.6438" style="stop-color:#02EDAE"/>
		<stop  offset="1" style="stop-color:#02F0B1"/>
	</linearGradient>
	<path fill="url(#SVGID_2_)" d="M797.2,1782.5c-1.1-120.7-270.7,19.9-239.2,109.1c14.4,47.1,31,95.8,49.8,144.5
		C715.9,1950.8,797.8,1847.3,797.2,1782.5z"/>
	
		<linearGradient id="SVGID_3_" gradientUnits="userSpaceOnUse" x1="557.0024" y1="4130.335" x2="585.5436" y2="4253.9614" gradientTransform="matrix(2.9526 0 0 2.9526 -804.5589 -9864.5723)">
		<stop  offset="0" style="stop-color:#06CC93"/>
		<stop  offset="0.1076" style="stop-color:#04DCA0"/>
		<stop  offset="0.2489" style="stop-color:#03E7AA"/>
		<stop  offset="0.4478" style="stop-color:#02EEAF"/>
		<stop  offset="1" style="stop-color:#02F0B1"/>
	</linearGradient>
	<path fill="url(#SVGID_3_)" d="M751.3,2351.1C1071.3,2271.9,944,2691,944,2691S855.9,2551.5,751.3,2351.1z"/>
	<path fill="#114454" d="M1231.3,973.1c15.5,39.9-44.8,36.5-108.5,60.9c-63.7,24.4-106.3,67-121.8,27.1
		c-15.5-39.9,23.8-91.9,87.5-116.3C1152.1,920.5,1216.4,933.2,1231.3,973.1z"/>
	<path fill="#114454" d="M1827.6,916.1c-4.4,36.5-48.7,10-106.9,3.3s-107.4,8.9-103.5-27.1c4.4-36.5,54.8-60.9,112.4-53.7
		C1788.3,844.1,1832,879.5,1827.6,916.1z"/>
	<path fill="#114454" d="M1646,1719.4c297.3-55.4,501-284.6,464.5-497.7s-1117.8-19.4-1076.8,200.4
		C1074.1,1641.9,1348.1,1774.8,1646,1719.4z"/>
	<path fill="#0D333F" d="M1617.2,1197.9c523.7-74.2,502.2,233.1,493.3,24.4c-36.5-213.2-1117.8-19.4-1076.8,200.4
		C1082.9,1598.1,1018.1,1274.8,1617.2,1197.9z"/>
	<path fill="#FFFFFF" d="M1433.9,1604.2c-9.4-52,57-108.5,149.5-125.1c92.5-17.2,175,11.1,184.4,63.1
		C1777.7,1594.3,1443.3,1655.7,1433.9,1604.2z"/>
</g>
</svg>
